<svg width="81" height="80" viewBox="0 0 81 80" fill="none" xmlns="http://www.w3.org/2000/svg">
<g clip-path="url(#clip0)">
<path d="M95.3 26.6C95.447 26.57 95.5988 26.5734 95.7443 26.61C95.8898 26.6466 96.0252 26.7155 96.1404 26.8116C96.2556 26.9076 96.3478 27.0283 96.4101 27.1648C96.4723 27.3013 96.5031 27.45 96.5 27.6C98.3 34.6 100.3 41.4 102.7 48.6H103.1C105.6 41.4 107.6 34.4 109.3 27.6C109.297 27.45 109.328 27.3013 109.39 27.1648C109.452 27.0283 109.544 26.9076 109.66 26.8116C109.775 26.7155 109.91 26.6466 110.056 26.61C110.201 26.5734 110.353 26.57 110.5 26.6H113.5C114.1 26.6 114.3 26.8 114.3 27.2C114.257 27.7752 114.156 28.3447 114 28.9C112.025 36.6065 109.587 44.1869 106.7 51.6C106.2 53 105.7 53.4 104.4 53.4H101.4C100.1 53.4 99.6 53 99 51.6C96.155 44.2158 93.7508 36.6692 91.8 29C91.6093 28.4484 91.4753 27.8788 91.4 27.3C91.4 26.9 91.7 26.7 92.3 26.7L95.3 26.6ZM136.3 41C136.3 42 135.8 42.6 134.8 42.6H120.7C120.8 47.8 122 49.7 127.3 49.7C129.276 49.6946 131.237 49.3565 133.1 48.7C133.39 48.5928 133.692 48.5255 134 48.5C134.3 48.5 134.5 48.6 134.7 49.1L135 50.4C135.148 50.7864 135.249 51.1893 135.3 51.6C135.3 52 135.1 52.2 134.6 52.4C132.09 53.4116 129.406 53.9212 126.7 53.9C118.2 53.9 115.5 50.2 115.5 40.9V39.1C115.5 30.5 118.3 26.1 126.2 26.1C132.7 26.1 136.2 29.3 136.2 37.1L136.3 41ZM130.7 38.5C131.3 38.5 131.4 38.3 131.4 37.7C131.4 32.5 130.4 30.3 126.1 30.3C121.6 30.3 120.6 32.9 120.6 38.5H130.7ZM140.2 27.4C140.2 26.8 140.5 26.6 141.1 26.6H143C143.7 26.6 144 26.8 144 27.4L144.3 29.2C145.9 27.3 148.3 26.2 152.1 26.2C158.4 26.2 161.6 29 161.6 36.9V52.4C161.6 53.2 161.3 53.4 160.5 53.4H157.7C156.9 53.4 156.7 53.2 156.7 52.4V36.7C156.7 32.1 155 30.2 150.9 30.2C147.3 30.2 145.2 31.6 145.2 35.9V52.4C145.2 53.2 145 53.4 144.2 53.4H141.3C140.5 53.4 140.3 53.2 140.3 52.4L140.2 27.4ZM175.8 53.4C172.4 53.4 170.4 52.7 169.3 51.4C168.2 50.1 167.6 48.1 167.6 44.7V31H164.4C163.8 31 163.5 30.9 163.5 30.2V28.5C163.5 27.8 163.7 27.7 164.3 27.5L167.7 26.9V20.9C167.7 20.1 168 19.9 168.7 19.9H171.7C172.4 19.9 172.7 20.2 172.7 20.9V26.7H178.5C179.2 26.7 179.5 26.9 179.5 27.7V30C179.5 30.7 179.2 31 178.5 31H172.6V44.4C172.6 46.5 172.7 47.3 173.3 48.1C173.9 48.9 174.7 49.1 176.7 49.1H179.1C179.8 49.1 180.1 49.3 180.1 50.1V52.4C180.1 53.1 179.9 53.4 179.1 53.4H175.8ZM198.5 27.6C198.5 26.8 198.8 26.6 199.6 26.6H202.4C203.3 26.6 203.5 26.8 203.5 27.6V45.3C203.5 48.5 202.6 50.6 200.7 52C199.1 53.3 196.9 53.8 193.2 53.8C189.5 53.8 187.2 53.3 185.5 52C183.8 50.7 182.7 48.5 182.7 45.3V27.6C182.7 26.8 183.1 26.6 183.8 26.6H186.7C187.5 26.6 187.7 26.8 187.7 27.6V44.6C187.7 46.6 188.1 47.8 189 48.6C190.242 49.4098 191.726 49.7632 193.2 49.6C194.7 49.7322 196.196 49.3047 197.4 48.4C198.2 47.7 198.5 46.5 198.5 44.5V27.6ZM212.4 30.1H212.5C214 27.7 215.8 26.6 219.3 26.6H220.4C221.3 26.6 221.6 26.8 221.6 27.6V30C221.6 30.7 221.3 31 220.4 31H219.2C216.6 31 215.5 31.4 214.6 32.4C213.7 33.4 213.4 34.9 213.4 37.2V52.4C213.4 53.2 213.1 53.4 212.3 53.4H209.4C208.7 53.4 208.4 53.2 208.4 52.4V27.4C208.4 26.7 208.6 26.6 209.2 26.6H211.2C211.8 26.6 212.2 26.7 212.2 27.4L212.4 30.1ZM239.6 27.6C239.6 26.8 240 26.6 240.7 26.6H243.6C244.4 26.6 244.6 26.8 244.6 27.6V45.3C244.6 48.5 243.7 50.6 241.9 52C240.2 53.3 238 53.8 234.3 53.8C230.6 53.8 228.3 53.3 226.6 52C224.9 50.7 223.9 48.5 223.9 45.3V27.6C223.9 26.8 224.2 26.6 224.9 26.6H227.8C228.6 26.6 228.8 26.8 228.8 27.6V44.6C228.8 46.6 229.2 47.8 230.1 48.6C231.342 49.4098 232.826 49.7632 234.3 49.6C235.799 49.7228 237.292 49.2963 238.5 48.4C239.4 47.7 239.6 46.5 239.6 44.5V27.6ZM249 52.5C248.4 52.3 248.2 52.2 248.2 51.7C248.249 51.1583 248.349 50.6225 248.5 50.1L248.8 49.1C248.9 48.5 249.1 48.3 249.5 48.3C250.186 48.4739 250.855 48.7082 251.5 49C253.323 49.5051 255.209 49.7409 257.1 49.7C260.5 49.7 262.1 48.5 262.1 46V45.7C262.1 43.2 260.8 42.4 258.1 41.8L255.6 41.3C250 40.1 248.6 38.5 248.6 33.9V33.6C248.6 28.5 251.6 26.1 257.9 26.1C260.236 26.1013 262.56 26.4381 264.8 27.1C265.3 27.2 265.4 27.4 265.4 27.8C265.328 28.3052 265.228 28.806 265.1 29.3L264.8 30.3C264.7 30.9 264.6 31.1 264.2 31.1C263.827 31.0716 263.459 31.0046 263.1 30.9C261.463 30.5039 259.785 30.3025 258.1 30.3C254.5 30.3 253.4 31.3 253.4 33.5V33.8C253.4 35.7 254.3 36.5 257.4 37.2L260 37.7C264.8 38.7 266.8 40.7 266.8 45.4V45.9C266.8 51 263.4 53.9 257 53.9C254.276 53.8655 251.574 53.3928 249 52.5ZM40 80C32.0888 80 24.3552 77.6541 17.7772 73.2588C11.1992 68.8635 6.07234 62.6164 3.04484 55.3074C0.0173314 47.9983 -0.774802 39.9556 0.768607 32.1964C2.31202 24.4372 6.12165 17.3098 11.7157 11.7157C17.3098 6.12165 24.4372 2.31202 32.1964 0.768607C39.9556 -0.774802 47.9983 0.0173314 55.3074 3.04484C62.6164 6.07234 68.8635 11.1992 73.2588 17.7772C77.6541 24.3552 80 32.0888 80 40C80 50.6087 75.7857 60.7828 68.2843 68.2843C60.7828 75.7857 50.6087 80 40 80ZM40 2.50002C32.6073 2.50004 25.3803 4.69102 19.2321 8.79618C13.0839 12.9013 8.29023 18.7365 5.45659 25.5647C2.62296 32.3928 1.8765 39.9075 3.3115 47.1597C4.7465 54.4118 8.29859 61.076 13.5191 66.3105C18.7396 71.5449 25.3942 75.1148 32.6425 76.5692C39.8908 78.0235 47.4076 77.2971 54.2432 74.4817C61.0789 71.6663 66.9269 66.8883 71.0484 60.751C75.17 54.6138 77.3802 47.3927 77.4 40C77.4001 30.0717 73.4629 20.5486 66.4519 13.5188C59.4409 6.48906 49.9283 2.52649 40 2.50002Z" fill="white"/>
<path d="M40.4 66C39.2549 66.0004 38.1137 65.8662 37 65.6C35.6885 65.2708 34.4681 64.6504 33.4294 63.7847C32.3906 62.9191 31.5603 61.8306 31 60.6L15.7 27C15.4355 26.4015 15.2988 25.7543 15.2988 25.1C15.2988 24.4456 15.4355 23.7985 15.7 23.2C15.9638 22.598 16.3485 22.0566 16.8301 21.6094C17.3118 21.1621 17.8801 20.8186 18.5 20.6C21.6075 19.5959 24.9358 19.4919 28.1 20.3C29.2791 20.667 30.364 21.2866 31.2793 22.1156C32.1946 22.9445 32.9183 23.9629 33.4 25.1C35.9 30.9 40 41.5 43 49.2L45.2 54.6C45.3638 54.9177 45.6099 55.1858 45.9124 55.3762C46.215 55.5666 46.5631 55.6724 46.9205 55.6826C47.2779 55.6928 47.6314 55.607 47.9444 55.4342C48.2574 55.2614 48.5183 55.0079 48.7 54.7L61.7 26.2C61.8506 25.8881 61.9288 25.5463 61.9288 25.2C61.9288 24.8537 61.8506 24.5118 61.7 24.2C61.5 23.8259 61.2147 23.5043 60.8673 23.261C60.5198 23.0178 60.1199 22.8598 59.7 22.8C57.7283 22.3841 55.7033 22.2829 53.7 22.5C52.619 22.5919 51.5831 22.9753 50.7026 23.6092C49.8222 24.2431 49.1301 25.1039 48.7 26.1L43.7 38.8L41.3 37.9L46.3 25.2C46.8791 23.7756 47.8381 22.5374 49.0724 21.6205C50.3067 20.7036 51.769 20.143 53.3 20C55.6395 19.7494 58.0043 19.8845 60.3 20.4C61.0703 20.5336 61.8015 20.836 62.4412 21.2856C63.0809 21.7351 63.6132 22.3205 64 23C64.3183 23.6543 64.4837 24.3724 64.4837 25.1C64.4837 25.8276 64.3183 26.5457 64 27.2L51.1 56C50.7245 56.7802 50.1318 57.4356 49.3931 57.8874C48.6544 58.3392 47.8011 58.5683 46.9354 58.5472C46.0698 58.5261 45.2286 58.2556 44.5128 57.7683C43.797 57.2811 43.237 56.5976 42.9 55.8L40.8 50.4L31.2 26.3C30.854 25.518 30.3449 24.8191 29.7068 24.2499C29.0687 23.6808 28.3162 23.2546 27.5 23C24.834 22.3119 22.0288 22.3811 19.4 23.2C19.112 23.2991 18.8478 23.457 18.6241 23.6635C18.4003 23.8701 18.2218 24.1209 18.1 24.4C17.9815 24.6677 17.9203 24.9572 17.9203 25.25C17.9203 25.5427 17.9815 25.8323 18.1 26.1L33.2 59.6C33.6128 60.4942 34.2233 61.2829 34.9855 61.9065C35.7478 62.5302 36.6418 62.9725 37.6 63.2C39.3446 63.595 41.1554 63.595 42.9 63.2C44.007 62.9874 45.0007 62.3841 45.7 61.5C45.7919 61.3555 45.9114 61.2306 46.0516 61.1323C46.1918 61.034 46.35 60.9643 46.5172 60.9272C46.6843 60.89 46.8571 60.8862 47.0258 60.9158C47.1944 60.9455 47.3555 61.0081 47.5 61.1C47.6444 61.1919 47.7694 61.3114 47.8677 61.4516C47.9659 61.5918 48.0356 61.75 48.0728 61.9171C48.1099 62.0843 48.1138 62.2571 48.0841 62.4257C48.0545 62.5944 47.9919 62.7555 47.9 62.9C46.8435 64.4247 45.225 65.4678 43.4 65.8C42.4134 66.0054 41.4078 66.106 40.4 66.1V66Z" fill="white"/>
</g>
<defs>
<clipPath id="clip0">
<rect width="266.7" height="79.9" fill="white"/>
</clipPath>
</defs>
</svg>
